<svg id="Group_1969" data-name="Group 1969" xmlns="http://www.w3.org/2000/svg" width="165.166" height="193.344" viewBox="0 0 165.166 193.344">
  <g id="Group_1949" data-name="Group 1949" transform="translate(99.748 0.453)">
    <path id="Path_1130" data-name="Path 1130" d="M1298.58,625.525c.051-.071.1-.141.157-.212,1.062-1.415,2.6-2.823,3.226-3.547,4.533-5.243,9.007-10.531,13.3-15.967,6.585-8.335,12.722-16.984,16.851-26.81,2.646-6.309,4.42-12.767,6.936-18.8,2.419-5.8,5.534-11.208,10.937-15.63,2.369-1.939,5.362-4.254,8.453-4.9a1.543,1.543,0,1,0-.642-3.018c-3.555.749-7.058,3.311-9.782,5.541-5.826,4.77-9.222,10.571-11.832,16.829-2.514,6.03-4.287,12.488-6.935,18.792-4.018,9.568-10.015,17.976-16.427,26.094-4.265,5.4-8.711,10.655-13.214,15.861a37.506,37.506,0,0,0-3.932,4.541,4.639,4.639,0,0,0-.841,3.009,1.9,1.9,0,0,0,1.524,1.641,3.963,3.963,0,0,0,1.662-.013,16.46,16.46,0,0,0,2.353-.727,75.661,75.661,0,0,0,12.055-5.705c13.588-7.625,26.6-16.607,34.042-30.672,6.065-11.464,6.816-24.917,12.8-36.264a1.539,1.539,0,0,0-.654-2.08,1.557,1.557,0,0,0-2.094.65c-5.978,11.344-6.729,24.8-12.8,36.259-7.156,13.529-19.749,22.087-32.818,29.423a72.311,72.311,0,0,1-11.552,5.477c-.089.03-.406.125-.776.231Z" transform="translate(-1294.808 -536.605)" fill="#a2060c" fill-rule="evenodd"/>
  </g>
  <g id="Group_1950" data-name="Group 1950" transform="translate(72.83 0.202)">
    <path id="Path_1131" data-name="Path 1131" d="M1282.284,590.711c.277-.388.566-.77.853-1.146a85.1,85.1,0,0,1,10.642-11.621,79.389,79.389,0,0,1,12.748-9.4c6.631-3.907,13.589-7.114,19.589-12.008,3.416-2.785,6.12-6.38,9.034-9.7,2.692-3.064,5.559-5.894,9.52-7.408a1.542,1.542,0,1,0-1.114-2.875c-4.447,1.7-7.72,4.813-10.743,8.256-2.8,3.189-5.382,6.664-8.663,9.341-5.878,4.8-12.71,7.912-19.2,11.742a82.23,82.23,0,0,0-13.251,9.772,87.95,87.95,0,0,0-11.029,12.041,24.079,24.079,0,0,0-2.389,3.611,3.909,3.909,0,0,0-.455,1.37,2,2,0,0,0,1.781,2.151,4.193,4.193,0,0,0,1.729-.3,34.108,34.108,0,0,0,3.234-1.519,64,64,0,0,1,14.3-4.97c8.5-1.865,17.4-2.115,25.312-6.136,12.07-6.135,17.94-18.488,25.6-28.865a42.759,42.759,0,0,1,11.729-11.192,21.446,21.446,0,0,1,3.032-1.793,3.791,3.791,0,0,1,.7-.23c.108-.024.208-.079.292-.04a1.543,1.543,0,1,0,1.353-2.773,3.838,3.838,0,0,0-2.773-.079,19.594,19.594,0,0,0-4.249,2.3,45.814,45.814,0,0,0-12.584,11.981c-7.378,10-12.878,22.034-24.508,27.943-7.675,3.9-16.321,4.062-24.567,5.87a67.243,67.243,0,0,0-15,5.214c-.306.15-.608.307-.91.461Z" transform="translate(-1277.818 -536.447)" fill="#a2060c" fill-rule="evenodd"/>
  </g>
  <g id="Group_1951" data-name="Group 1951" transform="translate(134.523 19.239)">
    <path id="Path_1132" data-name="Path 1132" d="M1320.308,639.6c.174-1.093.388-2.185.651-3.262,2.277-9.386,6.645-18.364,10.943-26.972,3.52-7.041,7.136-14.058,8.291-21.937,1.836-12.548.276-25.118,6.642-36.683a1.536,1.536,0,0,0-.615-2.091,1.556,1.556,0,0,0-2.105.612c-6.55,11.9-5.1,24.806-6.992,37.719-1.1,7.552-4.623,14.259-8,21.01-4.4,8.809-8.85,18.013-11.181,27.62a46.455,46.455,0,0,0-1.136,7.18,8.66,8.66,0,0,0,.094,2.522,1.662,1.662,0,0,0,1.736,1.18,2.6,2.6,0,0,0,1.782-1.031,17.016,17.016,0,0,0,1.353-2.237c1.823-3.028,3.454-6.165,5.2-9.237,5.764-10.121,13.619-17.116,20.151-26.606a1.536,1.536,0,0,0-.4-2.142,1.557,1.557,0,0,0-2.156.4c-6.586,9.566-14.483,16.628-20.292,26.828-1.345,2.364-2.621,4.766-3.97,7.126Z" transform="translate(-1316.757 -548.462)" fill="#a2060c" fill-rule="evenodd"/>
  </g>
  <g id="Group_1952" data-name="Group 1952" transform="translate(52.153 0.132)">
    <path id="Path_1133" data-name="Path 1133" d="M1269.732,574.521a114.7,114.7,0,0,1,8.482-11.368c5.062-6.074,11.2-11.814,18.2-15.617,6.407-3.478,12.985-4.718,19.372-8.245a1.538,1.538,0,0,0,.6-2.1,1.554,1.554,0,0,0-2.107-.6c-6.379,3.522-12.951,4.759-19.353,8.235-7.345,3.986-13.8,9.985-19.1,16.355a116.386,116.386,0,0,0-8.91,11.992,17.3,17.3,0,0,0-1.925,3.764,4.182,4.182,0,0,0-.184,1.741,1.805,1.805,0,0,0,.554.935,1.743,1.743,0,0,0,1.172.447,4.451,4.451,0,0,0,2.418-.859c1.326-.875,2.789-2.434,3.576-3.036,4.153-3.175,8.465-6.425,13.242-8.617,6.345-2.917,13.223-3.95,20.1-4.959,7.158-1.052,14.313-2.072,20.928-4.918,5.892-2.532,10.067-7.25,14.606-11.574.928-.886,2-2.125,3.167-3.229a7.752,7.752,0,0,1,3.077-2.047,1.543,1.543,0,1,0-.789-2.983,9.632,9.632,0,0,0-3.656,2.1c-1.467,1.258-2.814,2.855-3.945,3.932-4.273,4.07-8.144,8.586-13.692,10.972-6.364,2.738-13.26,3.684-20.147,4.694-7.171,1.054-14.333,2.172-20.948,5.211-4.986,2.289-9.5,5.658-13.833,8.972-.244.189-.553.471-.9.794Z" transform="translate(-1264.767 -536.402)" fill="#a2060c" fill-rule="evenodd"/>
  </g>
  <g id="Group_1953" data-name="Group 1953" transform="translate(0 0)">
    <path id="Path_1134" data-name="Path 1134" d="M1329.139,536.981c-2.155.437-4.279,1.673-6.295,2.513-3.289,1.374-6.637,2.63-9.989,3.84a67.694,67.694,0,0,1-24.914,4.2c-12.214-.383-24.322-4.4-36.1-7.3-5.637-1.386-12.586-3.981-18.462-3.912a1.541,1.541,0,1,0,.038,3.082c5.631-.067,12.277,2.5,17.678,3.825,11.984,2.95,24.317,6.995,36.743,7.385a70.847,70.847,0,0,0,26.072-4.379c3.4-1.228,6.8-2.5,10.132-3.894,1.835-.765,3.75-1.938,5.713-2.337a1.541,1.541,0,1,0-.62-3.02Z" transform="translate(-1231.85 -536.319)" fill="#a2060c" fill-rule="evenodd"/>
  </g>
  <g id="Group_1954" data-name="Group 1954" transform="translate(136.702 76.607)">
    <path id="Path_1135" data-name="Path 1135" d="M1321.261,696.463a31.32,31.32,0,0,1,.852-4.733c1.823-7.8,5.637-15.107,8.44-22.583,6.421-17.116,5.605-36.488,7.743-54.4,1.142-9.563,2.542-19.367,7.719-27.729a1.536,1.536,0,0,0-.509-2.12,1.558,1.558,0,0,0-2.134.5c-5.414,8.747-6.96,18.981-8.155,28.983-2.112,17.67-1.234,36.793-7.568,53.683-2.854,7.6-6.7,15.032-8.555,22.965a33.646,33.646,0,0,0-.937,5.354,7.7,7.7,0,0,0,.651,4.056,1.8,1.8,0,0,0,.914.825,1.853,1.853,0,0,0,1.6-.1,4.441,4.441,0,0,0,1.264-1.139,19.486,19.486,0,0,0,1.479-2.248c2.09-3.774,3.953-7.663,6.209-11.347,6.127-10.007,13.819-20.066,16.251-31.742a1.55,1.55,0,0,0-3.037-.624c-2.361,11.333-9.917,21.051-15.864,30.765-2.277,3.72-4.165,7.649-6.276,11.461-.014.024-.048.084-.093.165Z" transform="translate(-1318.132 -584.671)" fill="#a2060c" fill-rule="evenodd"/>
  </g>
  <g id="Group_1955" data-name="Group 1955" transform="translate(136.901 22.129)">
    <path id="Path_1136" data-name="Path 1136" d="M1344.526,550.618c-1.413,3.695-1.589,8.4-1.877,12.279-.8,10.778.573,21.788-1.86,32.392-2.117,9.218-7.792,16.431-12.559,24.4-3.875,6.474-6.591,13.313-9.918,20.034a.512.512,0,0,0,.234.688.52.52,0,0,0,.692-.234c3.316-6.7,6.021-13.511,9.879-19.96,4.826-8.066,10.539-15.375,12.678-24.7,2.445-10.655,1.082-21.717,1.885-32.546.28-3.782.434-8.384,1.814-11.99a.514.514,0,0,0-.3-.661.52.52,0,0,0-.669.3Z" transform="translate(-1318.258 -550.287)" fill="#a2060c" fill-rule="evenodd"/>
  </g>
  <g id="Group_1956" data-name="Group 1956" transform="translate(136.793 24.834)">
    <path id="Path_1137" data-name="Path 1137" d="M1343,552.406c-1.995,9.915-2,20.4-2.92,30.45-.5,5.469-1.009,11.225-2.94,16.417-1.613,4.33-4.254,8.194-6.662,12.111-2.85,4.637-5.59,9.346-8.019,14.215-1.887,3.78-4.1,7.95-4.27,12.266a.517.517,0,0,0,1.033.041c.167-4.175,2.337-8.2,4.162-11.851,2.418-4.843,5.143-9.525,7.974-14.136,2.445-3.974,5.115-7.895,6.75-12.29,1.963-5.276,2.492-11.122,3-16.68.916-10.018.916-20.46,2.9-30.342a.513.513,0,0,0-.406-.6.519.519,0,0,0-.609.4Z" transform="translate(-1318.19 -551.994)" fill="#a2060c" fill-rule="evenodd"/>
  </g>
  <g id="Group_1957" data-name="Group 1957" transform="translate(149.216 57.827)">
    <path id="Path_1138" data-name="Path 1138" d="M1339.219,573.373a26.868,26.868,0,0,1-.605,7.111,58.2,58.2,0,0,1-6.282,16.8c-1.995,3.707-4.387,7.212-6.249,10.986a.514.514,0,0,0,.236.688.52.52,0,0,0,.692-.233c1.857-3.766,4.243-7.26,6.233-10.954a59.277,59.277,0,0,0,6.385-17.1,27.872,27.872,0,0,0,.621-7.38.517.517,0,0,0-1.031.084Z" transform="translate(-1326.031 -572.818)" fill="#a2060c" fill-rule="evenodd"/>
  </g>
  <g id="Group_1958" data-name="Group 1958" transform="translate(103.589 14.186)">
    <path id="Path_1139" data-name="Path 1139" d="M1357.174,545.626a6.14,6.14,0,0,1-1.146,1.871c-.531.657-1.109,1.29-1.532,1.919a55.832,55.832,0,0,0-5.1,8.9c-3.5,8.047-4.27,17.254-8.647,24.9-2.5,4.365-6.128,8.028-9.557,11.674-6.863,7.3-14.582,12.938-22.827,18.554-3.6,2.451-7.112,5.225-10.874,7.426a.51.51,0,0,0-.182.7.519.519,0,0,0,.708.184c3.78-2.21,7.315-5,10.932-7.464,8.31-5.659,16.083-11.344,23-18.7,3.479-3.7,7.163-7.432,9.7-11.864,4.395-7.681,5.182-16.924,8.695-25a54.875,54.875,0,0,1,5.014-8.734c.857-1.268,2.32-2.568,2.8-4.042a.517.517,0,0,0-.984-.32Z" transform="translate(-1297.232 -545.273)" fill="#a2060c" fill-rule="evenodd"/>
  </g>
  <g id="Group_1959" data-name="Group 1959" transform="translate(102.307 10.652)">
    <path id="Path_1140" data-name="Path 1140" d="M1357.2,543.344c-1.386,3.055-3.934,5.766-5.935,8.418a42.189,42.189,0,0,0-5.175,8.967c-2.191,5.179-2.621,10.672-4.3,15.984a42.056,42.056,0,0,1-6.548,12.223c-6.475,8.755-15.68,15.112-24.3,21.6-4.913,3.7-9.257,8.044-14.3,11.563a.512.512,0,0,0-.127.716.522.522,0,0,0,.721.125c5.048-3.524,9.4-7.877,14.324-11.585,8.7-6.548,17.974-12.976,24.508-21.809a43.1,43.1,0,0,0,6.7-12.526c1.673-5.282,2.091-10.743,4.271-15.894a40.958,40.958,0,0,1,5.048-8.75c2.046-2.711,4.633-5.49,6.052-8.611a.514.514,0,0,0-.26-.68.52.52,0,0,0-.684.257Z" transform="translate(-1296.423 -543.042)" fill="#a2060c" fill-rule="evenodd"/>
  </g>
  <g id="Group_1960" data-name="Group 1960" transform="translate(103.788 4.767)">
    <path id="Path_1141" data-name="Path 1141" d="M1356.945,539.513a105.365,105.365,0,0,0-8.725,11.23,72.314,72.314,0,0,0-7.2,16.118c-2.513,7.662-2.673,16.111-7.459,22.927-3.365,4.794-8.909,7.995-13.518,11.471-8.08,6.1-16.637,12.76-22.585,21.077a.511.511,0,0,0,.12.716.517.517,0,0,0,.721-.12c5.889-8.232,14.37-14.82,22.369-20.855,4.69-3.538,10.313-6.821,13.74-11.7,4.845-6.9,5.051-15.439,7.594-23.195a71.317,71.317,0,0,1,7.1-15.894,104.712,104.712,0,0,1,8.64-11.117.509.509,0,0,0-.065-.722.519.519,0,0,0-.727.067Z" transform="translate(-1297.358 -539.328)" fill="#a2060c" fill-rule="evenodd"/>
  </g>
  <g id="Group_1961" data-name="Group 1961" transform="translate(112.051 2.224)">
    <path id="Path_1142" data-name="Path 1142" d="M1351.913,537.935c-2.717,3.757-6.057,7.036-8.837,10.748a64.41,64.41,0,0,0-8.129,14.506c-1.771,4.387-2.536,9-3.478,13.549-.922,4.468-2.017,8.876-4.465,12.939-3.318,5.509-8.3,9.354-13.137,13.443a124.221,124.221,0,0,0-11.157,10.747.511.511,0,0,0,.031.726.516.516,0,0,0,.729-.032,123.75,123.75,0,0,1,11.065-10.658c4.927-4.162,9.977-8.091,13.356-13.7,2.511-4.167,3.646-8.682,4.592-13.261.928-4.492,1.675-9.044,3.422-13.374a63.587,63.587,0,0,1,8-14.277c2.783-3.715,6.125-7,8.847-10.759a.512.512,0,0,0-.119-.716.52.52,0,0,0-.721.116Z" transform="translate(-1302.573 -537.723)" fill="#a2060c" fill-rule="evenodd"/>
  </g>
  <g id="Group_1962" data-name="Group 1962" transform="translate(115.636 3.07)">
    <path id="Path_1143" data-name="Path 1143" d="M1347.394,538.271a5.648,5.648,0,0,0-2.22,1.277c-.986.846-1.9,1.928-2.586,2.62a56.186,56.186,0,0,0-10.032,14.072c-3.4,6.68-5.311,14.315-6.967,21.592-.992,4.359-1.641,8.969-3.668,13.011-1.438,2.872-3.738,5.133-5.983,7.388-3.719,3.734-7.6,7.255-10.984,11.309a.512.512,0,0,0,.068.724.522.522,0,0,0,.729-.068c3.361-4.029,7.225-7.531,10.923-11.241,2.321-2.332,4.684-4.682,6.174-7.656,2.063-4.113,2.739-8.8,3.749-13.242,1.638-7.2,3.52-14.747,6.879-21.352a55.227,55.227,0,0,1,9.848-13.815c.67-.675,1.561-1.738,2.524-2.562a4.575,4.575,0,0,1,1.784-1.055.515.515,0,1,0-.239-1Z" transform="translate(-1304.836 -538.257)" fill="#a2060c" fill-rule="evenodd"/>
  </g>
  <g id="Group_1963" data-name="Group 1963" transform="translate(139.01 80.228)">
    <path id="Path_1144" data-name="Path 1144" d="M1343.845,587.29c-1.394,3.669-1.6,8.018-2.028,11.872-1.474,13.221.71,26.614-.97,39.783-2.584,20.267-12.572,38.332-21.21,56.536a.516.516,0,0,0,.935.437c8.684-18.3,18.7-36.469,21.3-56.843,1.679-13.175-.5-26.574.973-39.8.42-3.772.6-8.028,1.966-11.623a.51.51,0,0,0-.3-.661.517.517,0,0,0-.665.3Z" transform="translate(-1319.589 -586.957)" fill="#a2060c" fill-rule="evenodd"/>
  </g>
  <g id="Group_1964" data-name="Group 1964" transform="translate(141.283 79.427)">
    <path id="Path_1145" data-name="Path 1145" d="M1341.87,586.752c-1.629,3.549-2.053,8.064-2.759,11.859a163.063,163.063,0,0,0-2.327,26.5c-.13,6.981.3,13.944-1.025,20.847-1.5,7.828-5,15.159-8.207,22.572-3.242,7.505-6.182,15.091-6.528,23.338a.517.517,0,0,0,1.033.041c.339-8.118,3.251-15.584,6.445-22.973,3.234-7.481,6.754-14.885,8.27-22.786,1.337-6.96.913-13.979,1.044-21.018a161.846,161.846,0,0,1,2.312-26.337c.689-3.717,1.087-8.144,2.681-11.618a.516.516,0,0,0-.939-.428Z" transform="translate(-1321.024 -586.451)" fill="#a2060c" fill-rule="evenodd"/>
  </g>
  <g id="Group_1965" data-name="Group 1965" transform="translate(139.506 177.301)">
    <path id="Path_1146" data-name="Path 1146" d="M1320.884,654.614a.517.517,0,0,0-.58.428c-.155.952-.293,1.906-.38,2.868,0,.038-.032.52-.019.776a.976.976,0,0,0,.055.288.528.528,0,0,0,.65.317.62.62,0,0,0,.361-.3,3.229,3.229,0,0,0,.208-.638c.165-.58.284-1.168.4-1.762.317-1.64.569-3.288.816-4.938a20.3,20.3,0,0,0,.363-2.914.516.516,0,0,0-1.033,0,19.116,19.116,0,0,1-.354,2.763c-.153,1.038-.312,2.074-.486,3.11Z" transform="translate(-1319.902 -648.227)" fill="#a2060c" fill-rule="evenodd"/>
  </g>
  <g id="Group_1966" data-name="Group 1966" transform="translate(76.281 0.18)">
    <path id="Path_1147" data-name="Path 1147" d="M1298.129,572.757a45.619,45.619,0,0,0-11.162,9.284,48.467,48.467,0,0,0-3.847,4.726c-.363.51-.723,1.028-1.042,1.568-.014.029-.163.328-.273.562-.271.238-.542.48-.811.723-.214.2-.428.391-.635.592-.059.059-.208.189-.247.241a.519.519,0,0,0-.082.162.473.473,0,0,0,.192.58.5.5,0,0,0,.453.079,2.059,2.059,0,0,0,.73-.432c.263-.225.52-.507.713-.654a30.72,30.72,0,0,1,3.041-2.095,37.4,37.4,0,0,1,8.926-3.665c6.293-1.778,12.949-1.325,19.244-3a29.536,29.536,0,0,0,13.128-7.851c4.655-4.615,7.434-10.536,11-15.924a54.066,54.066,0,0,1,11.957-13.1,42.8,42.8,0,0,1,7.47-4.493,8.9,8.9,0,0,1,3.745-1.282.514.514,0,1,0,.035-1.027,4.223,4.223,0,0,0-.77.051.534.534,0,0,0,.089-.293.508.508,0,0,0-.146-.363,1.035,1.035,0,0,0-.639-.282,5.041,5.041,0,0,0-1.049.063,26.8,26.8,0,0,0-3.977.789c-6.022,1.546-10.634,4.862-15.032,9.15a102.318,102.318,0,0,0-9.95,11.4c-3.061,4.023-6.043,8.6-10.37,11.414-2.789,1.814-5.956,2.457-9.145,3.21-5.143,1.215-10.087,2.172-14.717,4.845a48.322,48.322,0,0,0-7.687,5.5q.228-.254.458-.507c3.926-4.286,8.209-8.056,13.575-10.412,6.219-2.731,13.318-3.381,19.028-7.24,7.641-5.165,12.279-13.394,18.988-19.546a44.54,44.54,0,0,1,7.832-5.933,24.558,24.558,0,0,1,3.311-1.613,7.431,7.431,0,0,0,1.179-.458.687.687,0,0,0,.342-.583.514.514,0,0,0-.458-.5,2.152,2.152,0,0,0-.5.008c-.377.044-.892.139-.938.147a43.609,43.609,0,0,0-4.856,1.163c-6.186,1.884-10.183,6.127-14.1,11.024-3.414,4.265-6.7,9.146-11.343,12.2-4.009,2.636-8.75,3.95-13.118,5.846a50.431,50.431,0,0,0-8.583,5.056.513.513,0,0,0-.128.716.5.5,0,0,0,.173.154Zm51.165-29.4a44.191,44.191,0,0,0-4.778,3.777c-5.411,4.915-9.343,11.063-13.765,16.815-2.736,3.558-5.625,7.147-9.457,9.6-6.086,3.891-12.919,3.95-19.716,5.541a38.777,38.777,0,0,0-14.223,6.684,43.52,43.52,0,0,1,6.447-2.338c6.3-1.778,12.96-1.328,19.259-3a28.461,28.461,0,0,0,12.662-7.587c4.607-4.565,7.342-10.43,10.869-15.761a55.115,55.115,0,0,1,12.188-13.343c.169-.13.339-.258.513-.387Zm7.63-5.213c-.84.152-1.675.36-2.494.569-5.84,1.5-10.3,4.732-14.568,8.89a101.343,101.343,0,0,0-9.847,11.287c-3.132,4.115-6.2,8.773-10.628,11.653-2.89,1.881-6.166,2.57-9.474,3.351-5.04,1.191-9.9,2.114-14.437,4.734a47.332,47.332,0,0,0-7.963,5.77,39.283,39.283,0,0,1,13.828-6.306c6.681-1.567,13.41-1.581,19.391-5.407,3.734-2.389,6.534-5.9,9.2-9.362,4.457-5.8,8.43-11.99,13.885-16.949a44.957,44.957,0,0,1,10.031-6.9c1.006-.5,2.038-.921,3.077-1.334Zm-9.321.029c-.7.171-1.388.358-2.069.567-5.976,1.819-9.814,5.949-13.6,10.682-3.481,4.348-6.851,9.3-11.58,12.417-4.061,2.67-8.855,4.012-13.278,5.93a43.554,43.554,0,0,0-6.919,3.939c.241-.112.483-.223.729-.331,6.16-2.7,13.2-3.324,18.862-7.149,7.6-5.135,12.2-13.334,18.87-19.453a45.747,45.747,0,0,1,8.013-6.068c.322-.182.643-.361.97-.534Z" transform="translate(-1279.996 -536.433)" fill="#a2060c" fill-rule="evenodd"/>
  </g>
  <g id="Group_1967" data-name="Group 1967" transform="translate(54.692 0.551)">
    <path id="Path_1148" data-name="Path 1148" d="M1283.136,555.722l.068-.065a28.23,28.23,0,0,1,6.024-4.733c4.5-2.384,9.2-2.506,14.074-3.612,6.345-1.442,12.557-3.4,18.767-5.314,2.73-.843,5.515-1.435,8.209-2.4a14.279,14.279,0,0,0,2.259-.846.82.82,0,0,0,.455-.707.8.8,0,0,0-.494-.651,7.356,7.356,0,0,0-2.107-.318,27.674,27.674,0,0,0-7.261.407c-3.815.778-7.06,3.139-10.838,4.107-6.553,1.675-13.194,1.933-19.2,5.333a.515.515,0,1,0,.513.894c5.924-3.356,12.485-3.581,18.944-5.233,3.764-.963,6.993-3.318,10.791-4.092a26.684,26.684,0,0,1,6.987-.391c.119.01.578.014,1.028.067-.591.22-1.279.415-1.423.466-2.681.954-5.453,1.543-8.166,2.383-6.182,1.911-12.372,3.858-18.691,5.292-4.97,1.128-9.747,1.279-14.329,3.709a29.2,29.2,0,0,0-6.255,4.9,72.89,72.89,0,0,0-9.9,11.811c-1.027,1.513-2.028,3.051-2.937,4.634a8.266,8.266,0,0,0-.758,1.467.785.785,0,0,0,.038.556q-.518.528-1.038,1.065c-.089.09-1.166,1.4-1.375,1.668a.585.585,0,0,0-.086.127.468.468,0,0,0,0,.477.487.487,0,0,0,.395.269,1.7,1.7,0,0,0,.913-.241,17.99,17.99,0,0,0,1.521-1.047c2.294-1.493,4.043-3.671,5.982-5.564a45.606,45.606,0,0,1,18.789-11.289c7.381-2.183,14.98-2.823,22.524-4.151,6.455-1.138,11.835-4.05,16.934-8.085,2.378-1.882,4.729-3.717,7.231-5.437,1.03-.708,2.256-1.857,3.527-2.107a.514.514,0,1,0-.2-1.008c-1.4.277-2.779,1.489-3.912,2.27-2.522,1.735-4.891,3.579-7.286,5.477-4.962,3.926-10.189,6.771-16.469,7.877-7.584,1.336-15.221,1.984-22.64,4.18a46.625,46.625,0,0,0-19.218,11.537,57.191,57.191,0,0,1-5.024,4.877c.808-.827,1.624-1.648,2.437-2.47,3.131-3.156,6.229-6.312,9.557-9.265,3.6-3.194,7.336-6.722,12.092-8.071,4.021-1.141,8.391-.7,12.515-.8a43.224,43.224,0,0,0,17.307-3.558,95.984,95.984,0,0,0,15.458-9.344c1.107-.789,2.219-1.557,3.353-2.31a6.025,6.025,0,0,0,1.006-.71.639.639,0,0,0,.16-.683.666.666,0,0,0-.558-.39,5.122,5.122,0,0,0-1.247.158,33.3,33.3,0,0,0-4.132,1.2c-6.022,2.052-11.445,5.428-17.371,7.711-6.234,2.4-12.61,2.326-19.116,3.3a40.893,40.893,0,0,0-17.824,6.683Zm57.908-17.716c-1.1.269-2.19.632-3.262,1-6.008,2.047-11.42,5.417-17.331,7.7-6.306,2.43-12.754,2.373-19.339,3.357a39.562,39.562,0,0,0-17.768,6.784,37.526,37.526,0,0,0-9.5,10.667c-.468.756-.911,1.526-1.364,2.289,2.712-2.739,5.433-5.455,8.323-8.02,3.712-3.3,7.591-6.9,12.5-8.292,4.1-1.163,8.565-.735,12.773-.841a42.182,42.182,0,0,0,16.9-3.465,94.777,94.777,0,0,0,15.289-9.246q1.379-.984,2.782-1.927Z" transform="translate(-1266.37 -536.667)" fill="#a2060c" fill-rule="evenodd"/>
  </g>
  <g id="Group_1968" data-name="Group 1968" transform="translate(15.923 0.346)">
    <path id="Path_1149" data-name="Path 1149" d="M1249.709,539.9c.311.043.619.082.93.124,5.648.754,11.243,1.578,16.945,1.825a186.194,186.194,0,0,0,33.7-1.8c4.8-.67,9.519-1.76,14.308-2.487a.515.515,0,0,0,.434-.585.521.521,0,0,0-.591-.433c-4.785.727-9.5,1.819-14.3,2.489a185.39,185.39,0,0,1-33.509,1.786c-5.67-.246-11.233-1.068-16.854-1.817-2.14-.287-4.293-.561-6.447-.705-.068,0-.808-.073-1.348-.084a2.673,2.673,0,0,0-.664.049.531.531,0,0,0-.417.529.607.607,0,0,0,.382.542,5.6,5.6,0,0,0,.925.236c1.036.227,2.072.44,3.107.659,4.8,1.011,9.566,2.071,14.4,2.9,17.073,2.922,34.263,1.147,50.864-3.28,2.418-.645,4.949-1.028,7.331-1.79a.514.514,0,1,0-.315-.979c-2.365.759-4.883,1.138-7.285,1.778-16.455,4.387-33.495,6.155-50.419,3.257-3.753-.642-7.465-1.426-11.181-2.218Z" transform="translate(-1241.9 -536.537)" fill="#a2060c" fill-rule="evenodd"/>
  </g>
</svg>
