<svg xmlns="http://www.w3.org/2000/svg" width="131.764" height="154.243" viewBox="0 0 131.764 154.243">
  <g id="Group_2071" data-name="Group 2071" transform="translate(131.764 154.243) rotate(180)">
    <g id="Group_1949" data-name="Group 1949" transform="translate(79.576 0.361)">
      <path id="Path_1130" data-name="Path 1130" d="M1297.817,607.542c.041-.057.081-.113.125-.169.847-1.129,2.073-2.252,2.573-2.83,3.616-4.182,7.186-8.4,10.612-12.738,5.253-6.65,10.15-13.549,13.443-21.388,2.111-5.033,3.526-10.185,5.534-15,1.93-4.63,4.415-8.941,8.725-12.469,1.89-1.547,4.277-3.394,6.743-3.912a1.231,1.231,0,1,0-.512-2.408c-2.836.6-5.631,2.642-7.8,4.42-4.648,3.806-7.357,8.433-9.439,13.426-2.006,4.811-3.42,9.962-5.532,14.992-3.205,7.633-7.989,14.341-13.1,20.817-3.4,4.308-6.949,8.5-10.541,12.653a29.908,29.908,0,0,0-3.137,3.622,3.7,3.7,0,0,0-.671,2.4,1.514,1.514,0,0,0,1.216,1.309,3.163,3.163,0,0,0,1.326-.01,13.136,13.136,0,0,0,1.877-.58,60.361,60.361,0,0,0,9.617-4.551c10.84-6.083,21.22-13.249,27.157-24.469,4.838-9.146,5.438-19.878,10.209-28.93a1.227,1.227,0,0,0-.522-1.66,1.242,1.242,0,0,0-1.671.518c-4.769,9.05-5.368,19.782-10.208,28.926-5.709,10.793-15.755,17.621-26.181,23.473a57.688,57.688,0,0,1-9.215,4.37c-.071.024-.324.1-.619.185Z" transform="translate(-1294.808 -536.605)" fill="#a2060c" fill-rule="evenodd"/>
    </g>
    <g id="Group_1950" data-name="Group 1950" transform="translate(58.101 0.161)">
      <path id="Path_1131" data-name="Path 1131" d="M1281.381,579.737c.221-.31.451-.614.68-.914a67.89,67.89,0,0,1,8.49-9.271,63.339,63.339,0,0,1,10.17-7.5c5.29-3.117,10.841-5.675,15.628-9.579,2.725-2.222,4.883-5.09,7.207-7.737,2.147-2.445,4.435-4.7,7.595-5.91a1.23,1.23,0,1,0-.889-2.294c-3.548,1.356-6.159,3.84-8.571,6.586-2.235,2.544-4.294,5.316-6.911,7.452-4.689,3.826-10.139,6.312-15.319,9.367a65.6,65.6,0,0,0-10.572,7.8,70.168,70.168,0,0,0-8.8,9.606,19.209,19.209,0,0,0-1.906,2.881,3.119,3.119,0,0,0-.363,1.093,1.6,1.6,0,0,0,1.421,1.716,3.344,3.344,0,0,0,1.379-.239,27.21,27.21,0,0,0,2.58-1.212,51.053,51.053,0,0,1,11.406-3.965c6.784-1.488,13.88-1.687,20.193-4.9,9.629-4.894,14.312-14.749,20.422-23.028a34.111,34.111,0,0,1,9.357-8.928,17.108,17.108,0,0,1,2.419-1.431,3.02,3.02,0,0,1,.557-.183c.086-.019.166-.063.233-.032a1.231,1.231,0,1,0,1.079-2.212,3.061,3.061,0,0,0-2.212-.063,15.63,15.63,0,0,0-3.39,1.838,36.547,36.547,0,0,0-10.039,9.558c-5.886,7.975-10.273,17.578-19.552,22.292-6.123,3.111-13.02,3.241-19.6,4.683a53.648,53.648,0,0,0-11.968,4.16c-.244.12-.485.245-.726.368Z" transform="translate(-1277.818 -536.447)" fill="#a2060c" fill-rule="evenodd"/>
    </g>
    <g id="Group_1951" data-name="Group 1951" transform="translate(107.318 15.348)">
      <path id="Path_1132" data-name="Path 1132" d="M1319.59,621.166c.139-.872.31-1.743.52-2.6,1.816-7.488,5.3-14.65,8.73-21.517,2.808-5.617,5.693-11.215,6.614-17.5,1.465-10.01.22-20.039,5.3-29.264a1.226,1.226,0,0,0-.49-1.668,1.241,1.241,0,0,0-1.68.488c-5.225,9.493-4.069,19.789-5.578,30.091-.88,6.025-3.688,11.375-6.38,16.761-3.511,7.028-7.06,14.37-8.92,22.034a37.059,37.059,0,0,0-.906,5.728,6.91,6.91,0,0,0,.075,2.012,1.326,1.326,0,0,0,1.385.942,2.074,2.074,0,0,0,1.422-.823,13.557,13.557,0,0,0,1.079-1.785c1.455-2.415,2.755-4.918,4.152-7.369,4.6-8.074,10.865-13.654,16.076-21.225a1.225,1.225,0,0,0-.321-1.709,1.242,1.242,0,0,0-1.72.32c-5.254,7.632-11.554,13.265-16.189,21.4-1.073,1.886-2.091,3.8-3.167,5.685Z" transform="translate(-1316.757 -548.462)" fill="#a2060c" fill-rule="evenodd"/>
    </g>
    <g id="Group_1952" data-name="Group 1952" transform="translate(41.605 0.105)">
      <path id="Path_1133" data-name="Path 1133" d="M1268.728,566.812a91.51,91.51,0,0,1,6.767-9.069,51.623,51.623,0,0,1,14.521-12.459c5.111-2.774,10.359-3.764,15.454-6.578a1.227,1.227,0,0,0,.479-1.672,1.24,1.24,0,0,0-1.681-.478c-5.089,2.81-10.332,3.8-15.439,6.57a54.092,54.092,0,0,0-15.241,13.048,92.854,92.854,0,0,0-7.108,9.567,13.8,13.8,0,0,0-1.536,3,3.333,3.333,0,0,0-.146,1.389,1.44,1.44,0,0,0,.442.746,1.39,1.39,0,0,0,.935.356,3.551,3.551,0,0,0,1.929-.685c1.058-.7,2.225-1.941,2.853-2.422a57.21,57.21,0,0,1,10.564-6.875c5.062-2.327,10.549-3.151,16.034-3.956,5.711-.839,11.419-1.653,16.7-3.923,4.7-2.02,8.031-5.784,11.652-9.233.741-.707,1.6-1.695,2.527-2.576a6.184,6.184,0,0,1,2.454-1.633,1.231,1.231,0,1,0-.63-2.38,7.683,7.683,0,0,0-2.917,1.676c-1.171,1-2.245,2.278-3.147,3.137-3.409,3.247-6.5,6.849-10.923,8.753-5.077,2.184-10.578,2.939-16.073,3.745-5.721.841-11.435,1.733-16.712,4.157a59.632,59.632,0,0,0-11.036,7.158c-.195.15-.441.375-.72.633Z" transform="translate(-1264.767 -536.402)" fill="#a2060c" fill-rule="evenodd"/>
    </g>
    <g id="Group_1953" data-name="Group 1953" transform="translate(0 0)">
      <path id="Path_1134" data-name="Path 1134" d="M1309.464,536.847a28.786,28.786,0,0,0-5.022,2c-2.624,1.1-5.295,2.1-7.969,3.064a54,54,0,0,1-19.875,3.347c-9.744-.306-19.4-3.507-28.8-5.822-4.5-1.106-10.041-3.176-14.729-3.121a1.229,1.229,0,1,0,.03,2.458c4.492-.053,9.794,1.991,14.1,3.051,9.56,2.353,19.4,5.58,29.312,5.891a56.52,56.52,0,0,0,20.8-3.494c2.714-.979,5.422-2,8.083-3.107a26.219,26.219,0,0,1,4.558-1.864,1.23,1.23,0,1,0-.494-2.409Z" transform="translate(-1231.85 -536.319)" fill="#a2060c" fill-rule="evenodd"/>
    </g>
    <g id="Group_1954" data-name="Group 1954" transform="translate(109.056 61.114)">
      <path id="Path_1135" data-name="Path 1135" d="M1320.629,673.855a24.978,24.978,0,0,1,.68-3.775c1.455-6.224,4.5-12.052,6.733-18.016,5.123-13.654,4.472-29.109,6.177-43.4.911-7.629,2.028-15.45,6.158-22.121a1.226,1.226,0,0,0-.406-1.691,1.243,1.243,0,0,0-1.7.4c-4.319,6.978-5.552,15.142-6.506,23.121-1.685,14.1-.984,29.353-6.038,42.826-2.276,6.063-5.348,11.992-6.825,18.321a26.843,26.843,0,0,0-.747,4.271,6.145,6.145,0,0,0,.519,3.236,1.435,1.435,0,0,0,.729.659,1.478,1.478,0,0,0,1.28-.077,3.544,3.544,0,0,0,1.009-.909,15.549,15.549,0,0,0,1.18-1.794c1.667-3.011,3.154-6.114,4.953-9.052,4.888-7.983,11.024-16.008,12.964-25.323a1.237,1.237,0,0,0-2.423-.5c-1.883,9.041-7.911,16.794-12.656,24.543-1.816,2.968-3.323,6.1-5.006,9.143l-.074.131Z" transform="translate(-1318.132 -584.671)" fill="#a2060c" fill-rule="evenodd"/>
    </g>
    <g id="Group_1955" data-name="Group 1955" transform="translate(109.215 17.654)">
      <path id="Path_1136" data-name="Path 1136" d="M1339.214,550.551c-1.127,2.948-1.268,6.7-1.5,9.8-.637,8.6.458,17.382-1.484,25.841-1.689,7.354-6.216,13.108-10.019,19.466-3.092,5.164-5.258,10.621-7.912,15.983a.409.409,0,0,0,.187.549.414.414,0,0,0,.552-.187c2.645-5.341,4.8-10.779,7.881-15.923,3.85-6.435,8.408-12.265,10.114-19.7,1.95-8.5.864-17.325,1.5-25.964.223-3.017.346-6.689,1.447-9.566a.41.41,0,0,0-.239-.527.415.415,0,0,0-.533.238Z" transform="translate(-1318.258 -550.287)" fill="#a2060c" fill-rule="evenodd"/>
    </g>
    <g id="Group_1956" data-name="Group 1956" transform="translate(109.129 19.812)">
      <path id="Path_1137" data-name="Path 1137" d="M1337.983,552.323c-1.591,7.91-1.594,16.271-2.329,24.292-.4,4.363-.805,8.955-2.346,13.1-1.287,3.454-3.394,6.537-5.315,9.662-2.274,3.7-4.459,7.456-6.4,11.34-1.505,3.016-3.269,6.342-3.406,9.785a.412.412,0,0,0,.824.033c.133-3.33,1.864-6.54,3.32-9.454,1.929-3.864,4.1-7.6,6.361-11.277,1.95-3.17,4.08-6.3,5.385-9.8,1.566-4.209,1.988-8.873,2.4-13.307.73-7.992.73-16.323,2.317-24.206a.41.41,0,0,0-.323-.482.414.414,0,0,0-.486.321Z" transform="translate(-1318.19 -551.994)" fill="#a2060c" fill-rule="evenodd"/>
    </g>
    <g id="Group_1957" data-name="Group 1957" transform="translate(119.039 46.132)">
      <path id="Path_1138" data-name="Path 1138" d="M1336.552,573.26a21.432,21.432,0,0,1-.483,5.673,46.431,46.431,0,0,1-5.012,13.4c-1.591,2.958-3.5,5.753-4.985,8.764a.41.41,0,0,0,.188.549.415.415,0,0,0,.552-.186c1.481-3,3.385-5.792,4.972-8.739a47.287,47.287,0,0,0,5.094-13.643,22.239,22.239,0,0,0,.5-5.887.413.413,0,0,0-.823.067Z" transform="translate(-1326.031 -572.818)" fill="#a2060c" fill-rule="evenodd"/>
    </g>
    <g id="Group_1958" data-name="Group 1958" transform="translate(82.64 11.317)">
      <path id="Path_1139" data-name="Path 1139" d="M1345.052,545.555a4.9,4.9,0,0,1-.914,1.493c-.423.525-.885,1.029-1.222,1.531a44.545,44.545,0,0,0-4.072,7.1c-2.791,6.42-3.406,13.764-6.9,19.865-1.992,3.482-4.889,6.4-7.624,9.313-5.475,5.825-11.633,10.321-18.211,14.8-2.872,1.955-5.674,4.168-8.675,5.924a.407.407,0,0,0-.145.56.414.414,0,0,0,.565.147c3.016-1.763,5.836-3.988,8.721-5.954,6.629-4.515,12.83-9.05,18.349-14.92,2.776-2.954,5.714-5.929,7.738-9.464,3.506-6.128,4.134-13.5,6.936-19.948a43.773,43.773,0,0,1,4-6.968c.684-1.011,1.85-2.049,2.237-3.224a.413.413,0,0,0-.785-.255Z" transform="translate(-1297.232 -545.273)" fill="#a2060c" fill-rule="evenodd"/>
    </g>
    <g id="Group_1959" data-name="Group 1959" transform="translate(81.617 8.498)">
      <path id="Path_1140" data-name="Path 1140" d="M1344.907,543.283c-1.106,2.437-3.138,4.6-4.735,6.715a33.656,33.656,0,0,0-4.128,7.154c-1.748,4.132-2.091,8.514-3.433,12.752a33.548,33.548,0,0,1-5.224,9.751c-5.166,6.984-12.509,12.055-19.384,17.232-3.919,2.951-7.385,6.417-11.4,9.224a.408.408,0,0,0-.1.571.416.416,0,0,0,.575.1c4.027-2.811,7.5-6.284,11.427-9.242,6.938-5.224,14.339-10.352,19.552-17.4a34.385,34.385,0,0,0,5.345-9.993c1.335-4.214,1.668-8.571,3.408-12.68a32.674,32.674,0,0,1,4.027-6.981c1.632-2.163,3.7-4.38,4.828-6.87a.41.41,0,0,0-.208-.542.415.415,0,0,0-.546.2Z" transform="translate(-1296.423 -543.042)" fill="#a2060c" fill-rule="evenodd"/>
    </g>
    <g id="Group_1960" data-name="Group 1960" transform="translate(82.799 3.803)">
      <path id="Path_1141" data-name="Path 1141" d="M1344.895,539.476a84.055,84.055,0,0,0-6.961,8.959,57.693,57.693,0,0,0-5.747,12.858c-2,6.112-2.132,12.853-5.951,18.291-2.685,3.825-7.107,6.378-10.784,9.151-6.446,4.864-13.273,10.18-18.017,16.814a.408.408,0,0,0,.1.571.412.412,0,0,0,.575-.1c4.7-6.567,11.464-11.823,17.845-16.637,3.741-2.822,8.227-5.441,10.961-9.334,3.865-5.5,4.03-12.317,6.058-18.5a56.894,56.894,0,0,1,5.664-12.68,83.555,83.555,0,0,1,6.892-8.869.406.406,0,0,0-.052-.576.414.414,0,0,0-.58.053Z" transform="translate(-1297.358 -539.328)" fill="#a2060c" fill-rule="evenodd"/>
    </g>
    <g id="Group_1961" data-name="Group 1961" transform="translate(89.39 1.774)">
      <path id="Path_1142" data-name="Path 1142" d="M1341.935,537.892c-2.168,3-4.832,5.613-7.05,8.575a51.388,51.388,0,0,0-6.485,11.573,61.717,61.717,0,0,0-2.774,10.809,31.89,31.89,0,0,1-3.562,10.323c-2.647,4.395-6.619,7.462-10.48,10.725a99.089,99.089,0,0,0-8.9,8.573.407.407,0,0,0,.025.579.411.411,0,0,0,.581-.025,98.7,98.7,0,0,1,8.827-8.5c3.931-3.32,7.959-6.455,10.655-10.928a32.683,32.683,0,0,0,3.663-10.579,60.945,60.945,0,0,1,2.73-10.669,50.736,50.736,0,0,1,6.383-11.389c2.221-2.964,4.886-5.584,7.058-8.583a.408.408,0,0,0-.095-.571.415.415,0,0,0-.575.092Z" transform="translate(-1302.573 -537.723)" fill="#a2060c" fill-rule="evenodd"/>
    </g>
    <g id="Group_1962" data-name="Group 1962" transform="translate(92.25 2.449)">
      <path id="Path_1143" data-name="Path 1143" d="M1338.787,538.268a4.5,4.5,0,0,0-1.771,1.019c-.786.675-1.514,1.538-2.063,2.091a44.822,44.822,0,0,0-8,11.226c-2.713,5.329-4.237,11.42-5.558,17.225-.792,3.477-1.31,7.155-2.926,10.379a23.816,23.816,0,0,1-4.773,5.894c-2.967,2.979-6.066,5.788-8.763,9.022a.408.408,0,0,0,.054.578.416.416,0,0,0,.581-.054c2.681-3.214,5.764-6.008,8.714-8.968a24.676,24.676,0,0,0,4.926-6.107c1.646-3.281,2.185-7.024,2.991-10.564,1.307-5.741,2.808-11.765,5.488-17.034a44.065,44.065,0,0,1,7.857-11.022c.535-.539,1.245-1.387,2.014-2.044a3.648,3.648,0,0,1,1.423-.842.411.411,0,1,0-.191-.8Z" transform="translate(-1304.836 -538.257)" fill="#a2060c" fill-rule="evenodd"/>
    </g>
    <g id="Group_1963" data-name="Group 1963" transform="translate(110.897 64.003)">
      <path id="Path_1144" data-name="Path 1144" d="M1338.94,587.222c-1.112,2.927-1.274,6.4-1.618,9.471-1.176,10.548.566,21.232-.774,31.738-2.062,16.168-10.029,30.58-16.92,45.1a.412.412,0,0,0,.745.349c6.928-14.6,14.92-29.093,16.993-45.348,1.34-10.511-.4-21.2.776-31.751.335-3.009.482-6.4,1.569-9.272a.407.407,0,0,0-.24-.527.412.412,0,0,0-.531.239Z" transform="translate(-1319.589 -586.957)" fill="#a2060c" fill-rule="evenodd"/>
    </g>
    <g id="Group_1964" data-name="Group 1964" transform="translate(112.711 63.364)">
      <path id="Path_1145" data-name="Path 1145" d="M1337.654,586.691c-1.3,2.831-1.638,6.433-2.2,9.461a130.088,130.088,0,0,0-1.857,21.143c-.1,5.569.239,11.124-.818,16.631-1.2,6.245-3.991,12.093-6.547,18.007-2.586,5.987-4.932,12.039-5.208,18.618a.412.412,0,0,0,.824.033c.271-6.476,2.594-12.432,5.142-18.327,2.58-5.968,5.388-11.875,6.6-18.178,1.067-5.552.728-11.152.833-16.767a129.124,129.124,0,0,1,1.844-21.01c.55-2.965.867-6.5,2.139-9.269a.412.412,0,0,0-.749-.341Z" transform="translate(-1321.024 -586.451)" fill="#a2060c" fill-rule="evenodd"/>
    </g>
    <g id="Group_1965" data-name="Group 1965" transform="translate(111.293 141.445)">
      <path id="Path_1146" data-name="Path 1146" d="M1320.686,653.322a.412.412,0,0,0-.463.341c-.124.76-.234,1.521-.3,2.288,0,.03-.025.415-.015.619a.781.781,0,0,0,.044.23.422.422,0,0,0,.518.253.494.494,0,0,0,.288-.238,2.586,2.586,0,0,0,.166-.509c.131-.463.226-.932.319-1.406.253-1.308.454-2.623.651-3.94a16.2,16.2,0,0,0,.289-2.324.412.412,0,0,0-.824,0,15.246,15.246,0,0,1-.282,2.2c-.122.828-.249,1.655-.388,2.481Z" transform="translate(-1319.902 -648.227)" fill="#a2060c" fill-rule="evenodd"/>
    </g>
    <g id="Group_1966" data-name="Group 1966" transform="translate(60.854 0.144)">
      <path id="Path_1147" data-name="Path 1147" d="M1294.462,565.411a36.393,36.393,0,0,0-8.9,7.407,38.652,38.652,0,0,0-3.069,3.77c-.29.407-.576.82-.832,1.251-.011.023-.13.262-.218.449-.216.19-.432.383-.647.576-.171.157-.341.312-.507.473-.047.047-.166.15-.2.192a.414.414,0,0,0-.066.129.378.378,0,0,0,.153.463.4.4,0,0,0,.361.063,1.642,1.642,0,0,0,.583-.345c.21-.18.415-.4.569-.522a24.506,24.506,0,0,1,2.426-1.671,29.838,29.838,0,0,1,7.121-2.924c5.02-1.418,10.33-1.057,15.352-2.39a23.562,23.562,0,0,0,10.473-6.263c3.714-3.682,5.93-8.405,8.776-12.7a43.131,43.131,0,0,1,9.539-10.449,34.136,34.136,0,0,1,5.959-3.585,7.1,7.1,0,0,1,2.988-1.023.41.41,0,1,0,.028-.819,3.37,3.37,0,0,0-.614.04.426.426,0,0,0,.071-.234.405.405,0,0,0-.116-.289.825.825,0,0,0-.51-.225,4.021,4.021,0,0,0-.837.051,21.384,21.384,0,0,0-3.173.629c-4.8,1.234-8.483,3.879-11.992,7.3a81.628,81.628,0,0,0-7.937,9.1c-2.442,3.209-4.821,6.858-8.272,9.105-2.225,1.447-4.751,1.96-7.3,2.561-4.1.969-8.047,1.733-11.741,3.865a38.55,38.55,0,0,0-6.133,4.386q.182-.2.365-.4a32.688,32.688,0,0,1,10.829-8.307c4.961-2.179,10.625-2.7,15.18-5.776,6.1-4.12,9.8-10.685,15.148-15.593a35.537,35.537,0,0,1,6.248-4.733,19.592,19.592,0,0,1,2.642-1.287,5.928,5.928,0,0,0,.94-.365.548.548,0,0,0,.273-.465.41.41,0,0,0-.365-.4,1.719,1.719,0,0,0-.4.006c-.3.035-.712.111-.748.118a34.791,34.791,0,0,0-3.874.928c-4.935,1.5-8.123,4.888-11.25,8.794-2.724,3.4-5.345,7.3-9.049,9.732-3.2,2.1-6.981,3.151-10.465,4.664a40.232,40.232,0,0,0-6.847,4.033.409.409,0,0,0-.1.571.4.4,0,0,0,.138.123Zm40.818-23.451a35.253,35.253,0,0,0-3.812,3.013c-4.316,3.921-7.453,8.826-10.981,13.414-2.183,2.839-4.487,5.7-7.545,7.659-4.855,3.1-10.306,3.151-15.728,4.42a30.934,30.934,0,0,0-11.347,5.333,34.72,34.72,0,0,1,5.143-1.866c5.023-1.418,10.339-1.059,15.364-2.394a22.705,22.705,0,0,0,10.1-6.053c3.675-3.641,5.857-8.32,8.671-12.574a43.967,43.967,0,0,1,9.724-10.645c.135-.1.27-.206.409-.308Zm6.087-4.158c-.67.121-1.336.287-1.99.454-4.659,1.2-8.219,3.775-11.622,7.092a80.852,80.852,0,0,0-7.855,9c-2.5,3.282-4.948,7-8.479,9.3-2.305,1.5-4.919,2.05-7.558,2.673-4.021.95-7.895,1.686-11.517,3.777a37.759,37.759,0,0,0-6.353,4.6,31.34,31.34,0,0,1,11.032-5.031c5.33-1.25,10.7-1.261,15.469-4.314,2.979-1.906,5.213-4.7,7.339-7.469,3.555-4.625,6.725-9.565,11.077-13.522a35.863,35.863,0,0,1,8-5.5c.8-.4,1.626-.734,2.455-1.064Zm-7.436.023c-.555.137-1.107.286-1.651.453-4.768,1.451-7.829,4.746-10.847,8.521-2.777,3.468-5.465,7.423-9.238,9.906-3.239,2.13-7.064,3.2-10.593,4.731a34.749,34.749,0,0,0-5.52,3.142c.192-.09.385-.178.581-.264,4.914-2.158,10.534-2.652,15.047-5.7,6.063-4.1,9.731-10.637,15.054-15.519a36.5,36.5,0,0,1,6.393-4.841c.257-.145.513-.288.774-.426Z" transform="translate(-1279.996 -536.433)" fill="#a2060c" fill-rule="evenodd"/>
    </g>
    <g id="Group_1967" data-name="Group 1967" transform="translate(43.631 0.439)">
      <path id="Path_1148" data-name="Path 1148" d="M1279.745,551.868l.054-.052a22.52,22.52,0,0,1,4.806-3.775c3.591-1.9,7.336-2,11.228-2.882,5.062-1.15,10.018-2.71,14.971-4.239,2.178-.672,4.4-1.145,6.549-1.912a11.39,11.39,0,0,0,1.8-.675.654.654,0,0,0,.363-.564.639.639,0,0,0-.394-.52,5.868,5.868,0,0,0-1.681-.254,22.08,22.08,0,0,0-5.793.325c-3.043.621-5.632,2.5-8.646,3.276-5.228,1.336-10.526,1.542-15.319,4.254a.411.411,0,1,0,.41.713c4.726-2.677,9.96-2.857,15.113-4.175,3-.769,5.579-2.647,8.609-3.265a21.285,21.285,0,0,1,5.574-.312c.095.008.461.011.82.053-.471.176-1.02.331-1.135.372-2.139.761-4.351,1.231-6.514,1.9-4.932,1.524-9.87,3.078-14.911,4.221-3.965.9-7.776,1.02-11.431,2.959a23.294,23.294,0,0,0-4.99,3.907,58.138,58.138,0,0,0-7.9,9.423c-.819,1.207-1.618,2.434-2.343,3.7a6.59,6.59,0,0,0-.6,1.17.626.626,0,0,0,.031.444q-.413.421-.828.849c-.071.072-.93,1.12-1.1,1.331a.466.466,0,0,0-.068.1.373.373,0,0,0,0,.38.389.389,0,0,0,.315.215,1.36,1.36,0,0,0,.728-.192,14.349,14.349,0,0,0,1.213-.835,33.246,33.246,0,0,0,4.773-4.439,36.383,36.383,0,0,1,14.989-9.006c5.888-1.742,11.95-2.252,17.969-3.312a29.744,29.744,0,0,0,13.509-6.45c1.9-1.5,3.773-2.965,5.769-4.338a8.766,8.766,0,0,1,2.813-1.681.41.41,0,1,0-.162-.8,9.641,9.641,0,0,0-3.121,1.811c-2.012,1.384-3.9,2.855-5.813,4.369a28.937,28.937,0,0,1-13.139,6.284c-6.051,1.066-12.143,1.582-18.062,3.334a37.2,37.2,0,0,0-15.332,9.2,45.6,45.6,0,0,1-4.008,3.89c.645-.66,1.3-1.314,1.944-1.97,2.5-2.518,4.97-5.036,7.624-7.392,2.87-2.548,5.852-5.363,9.646-6.439,3.208-.91,6.694-.557,9.984-.641a34.482,34.482,0,0,0,13.807-2.839,76.563,76.563,0,0,0,12.332-7.455c.884-.63,1.771-1.243,2.675-1.843a4.815,4.815,0,0,0,.8-.566.51.51,0,0,0,.127-.545.531.531,0,0,0-.445-.311,4.088,4.088,0,0,0-.995.126,26.568,26.568,0,0,0-3.3.956c-4.8,1.637-9.131,4.33-13.858,6.152-4.973,1.917-10.06,1.855-15.25,2.63a32.623,32.623,0,0,0-14.219,5.331Zm46.2-14.133c-.881.215-1.747.5-2.6.795-4.793,1.633-9.11,4.321-13.826,6.14-5.03,1.939-10.175,1.893-15.427,2.678a31.562,31.562,0,0,0-14.175,5.412,29.936,29.936,0,0,0-7.577,8.51c-.373.6-.727,1.217-1.088,1.826,2.164-2.185,4.334-4.352,6.639-6.4,2.961-2.629,6.055-5.506,9.97-6.615,3.273-.928,6.833-.586,10.19-.671a33.652,33.652,0,0,0,13.481-2.764,75.607,75.607,0,0,0,12.2-7.376q1.1-.785,2.22-1.537Z" transform="translate(-1266.37 -536.667)" fill="#a2060c" fill-rule="evenodd"/>
    </g>
    <g id="Group_1968" data-name="Group 1968" transform="translate(12.703 0.276)">
      <path id="Path_1149" data-name="Path 1149" d="M1248.13,539.216c.248.034.494.066.742.1,4.506.6,8.969,1.259,13.518,1.456a148.544,148.544,0,0,0,26.884-1.433c3.831-.535,7.594-1.4,11.415-1.984a.411.411,0,0,0,.347-.466.416.416,0,0,0-.472-.345c-3.817.58-7.576,1.451-11.4,1.986a147.9,147.9,0,0,1-26.732,1.424c-4.524-.2-8.961-.852-13.446-1.45-1.708-.229-3.425-.447-5.143-.562-.054,0-.645-.058-1.076-.067a2.135,2.135,0,0,0-.53.039.424.424,0,0,0-.333.422.484.484,0,0,0,.3.432,4.465,4.465,0,0,0,.738.188c.827.181,1.653.351,2.479.526,3.828.806,7.632,1.652,11.488,2.314,13.62,2.331,27.334.915,40.578-2.616,1.929-.514,3.949-.82,5.848-1.428a.41.41,0,1,0-.251-.781c-1.887.605-3.9.907-5.812,1.418-13.127,3.5-26.721,4.91-40.222,2.6-2.994-.512-5.956-1.138-8.92-1.77Z" transform="translate(-1241.9 -536.537)" fill="#a2060c" fill-rule="evenodd"/>
    </g>
  </g>
</svg>
