<svg id="Group_1948" data-name="Group 1948" xmlns="http://www.w3.org/2000/svg" width="165.166" height="193.345" viewBox="0 0 165.166 193.345">
  <g id="Group_1928" data-name="Group 1928" transform="translate(0.554 100.468)">
    <path id="Path_1110" data-name="Path 1110" d="M1091.945,774.846l-.155.214c-1.065,1.412-2.6,2.823-3.227,3.546-4.534,5.244-9.009,10.531-13.3,15.969-6.586,8.334-12.724,16.983-16.85,26.81-2.649,6.306-4.422,12.764-6.936,18.8-2.421,5.8-5.537,11.208-10.937,15.63-2.37,1.939-5.363,4.254-8.456,4.9a1.543,1.543,0,1,0,.642,3.018c3.559-.749,7.058-3.311,9.785-5.542,5.826-4.767,9.221-10.571,11.829-16.827,2.514-6.032,4.287-12.489,6.936-18.792,4.018-9.568,10.013-17.978,16.425-26.094,4.267-5.4,8.712-10.653,13.215-15.861a37.761,37.761,0,0,0,3.932-4.541,4.612,4.612,0,0,0,.84-3.009,1.9,1.9,0,0,0-1.522-1.641,3.972,3.972,0,0,0-1.664.013,16.391,16.391,0,0,0-2.35.727,75.474,75.474,0,0,0-12.057,5.7c-13.589,7.627-26.6,16.609-34.04,30.673-6.066,11.463-6.817,24.917-12.8,36.264a1.536,1.536,0,0,0,.654,2.08,1.556,1.556,0,0,0,2.093-.65c5.978-11.346,6.727-24.8,12.794-36.259,7.158-13.529,19.75-22.088,32.822-29.423a72.3,72.3,0,0,1,11.548-5.477c.09-.032.409-.124.778-.231Z" transform="translate(-1030.852 -771.343)" fill="#f6f6f6" fill-rule="evenodd"/>
  </g>
  <g id="Group_1929" data-name="Group 1929" transform="translate(2.405 134.738)">
    <path id="Path_1111" data-name="Path 1111" d="M1117.488,797.112c-.279.387-.567.768-.854,1.146a84.888,84.888,0,0,1-10.642,11.62,79.058,79.058,0,0,1-12.749,9.4c-6.629,3.909-13.586,7.115-19.589,12.008-3.414,2.788-6.12,6.382-9.032,9.7-2.69,3.066-5.561,5.892-9.519,7.407a1.542,1.542,0,1,0,1.112,2.877c4.449-1.7,7.719-4.815,10.743-8.258,2.8-3.189,5.38-6.662,8.665-9.34,5.878-4.8,12.708-7.914,19.2-11.742a82.437,82.437,0,0,0,13.25-9.771,88.246,88.246,0,0,0,11.03-12.043,24.25,24.25,0,0,0,2.389-3.611,3.9,3.9,0,0,0,.453-1.37,2.007,2.007,0,0,0-1.781-2.152,4.165,4.165,0,0,0-1.727.3,33.579,33.579,0,0,0-3.234,1.518,64.04,64.04,0,0,1-14.3,4.973c-8.5,1.862-17.4,2.114-25.312,6.135-12.071,6.133-17.94,18.488-25.6,28.864a42.747,42.747,0,0,1-11.73,11.193,21.506,21.506,0,0,1-3.031,1.794,3.975,3.975,0,0,1-.7.231c-.108.022-.206.078-.29.038a1.556,1.556,0,0,0-2.073.713,1.539,1.539,0,0,0,.719,2.06,3.844,3.844,0,0,0,2.773.079,19.545,19.545,0,0,0,4.249-2.3A45.783,45.783,0,0,0,1052.5,836.6c7.378-10,12.881-22.035,24.508-27.942,7.675-3.9,16.322-4.064,24.567-5.872a67.083,67.083,0,0,0,15-5.216c.3-.149.607-.306.911-.459Z" transform="translate(-1032.02 -792.974)" fill="#f6f6f6" fill-rule="evenodd"/>
  </g>
  <g id="Group_1930" data-name="Group 1930" transform="translate(0 76.067)">
    <path id="Path_1112" data-name="Path 1112" d="M1057.594,762.845q-.259,1.642-.648,3.262c-2.277,9.384-6.646,18.364-10.946,26.97-3.517,7.046-7.136,14.058-8.289,21.939-1.836,12.55-.276,25.117-6.643,36.682a1.536,1.536,0,0,0,.618,2.091,1.556,1.556,0,0,0,2.1-.613c6.551-11.9,5.1-24.8,6.99-37.719,1.106-7.551,4.626-14.258,8-21.008,4.4-8.811,8.852-18.013,11.181-27.62a46.429,46.429,0,0,0,1.138-7.18,8.655,8.655,0,0,0-.092-2.522,1.667,1.667,0,0,0-1.74-1.182,2.616,2.616,0,0,0-1.782,1.031,16.9,16.9,0,0,0-1.351,2.239c-1.822,3.029-3.454,6.165-5.2,9.237-5.764,10.121-13.621,17.114-20.153,26.606a1.534,1.534,0,0,0,.4,2.142,1.556,1.556,0,0,0,2.155-.4c6.585-9.566,14.483-16.628,20.291-26.829,1.347-2.362,2.624-4.764,3.971-7.125Z" transform="translate(-1030.503 -755.942)" fill="#f6f6f6" fill-rule="evenodd"/>
  </g>
  <g id="Group_1931" data-name="Group 1931" transform="translate(28.977 149.546)">
    <path id="Path_1113" data-name="Path 1113" d="M1127.865,807.865a114.811,114.811,0,0,1-8.484,11.369c-5.061,6.074-11.2,11.815-18.2,15.615-6.41,3.479-12.987,4.72-19.372,8.247a1.537,1.537,0,0,0-.6,2.1,1.557,1.557,0,0,0,2.109.6c6.378-3.522,12.95-4.761,19.351-8.234,7.345-3.988,13.8-9.988,19.106-16.357a116.067,116.067,0,0,0,8.909-11.992,17.1,17.1,0,0,0,1.927-3.764,4.188,4.188,0,0,0,.185-1.743,1.772,1.772,0,0,0-.558-.932,1.739,1.739,0,0,0-1.172-.45,4.5,4.5,0,0,0-2.418.86c-1.325.875-2.787,2.434-3.576,3.034-4.149,3.177-8.464,6.426-13.24,8.619-6.345,2.915-13.225,3.95-20.1,4.959-7.156,1.052-14.311,2.072-20.926,4.918-5.894,2.532-10.065,7.248-14.606,11.575-.928.884-2,2.123-3.167,3.227a7.76,7.76,0,0,1-3.078,2.047,1.542,1.542,0,1,0,.789,2.982,9.577,9.577,0,0,0,3.657-2.1c1.469-1.256,2.814-2.853,3.947-3.932,4.273-4.072,8.142-8.586,13.69-10.972,6.365-2.738,13.261-3.684,20.15-4.7,7.169-1.05,14.331-2.171,20.947-5.209,4.986-2.291,9.5-5.658,13.833-8.974.242-.187.553-.469.9-.794Z" transform="translate(-1048.792 -802.32)" fill="#f6f6f6" fill-rule="evenodd"/>
  </g>
  <g id="Group_1932" data-name="Group 1932" transform="translate(66.015 179.02)">
    <path id="Path_1114" data-name="Path 1114" d="M1074.03,834.583c2.158-.436,4.282-1.673,6.295-2.513,3.291-1.372,6.638-2.628,9.991-3.839a67.7,67.7,0,0,1,24.916-4.2c12.211.383,24.32,4.4,36.1,7.3,5.634,1.386,12.586,3.983,18.459,3.915a1.542,1.542,0,1,0-.035-3.083c-5.632.067-12.28-2.494-17.68-3.825-11.986-2.952-24.315-6.995-36.744-7.386a70.874,70.874,0,0,0-26.071,4.382c-3.4,1.228-6.8,2.5-10.134,3.893-1.832.765-3.747,1.938-5.713,2.335a1.541,1.541,0,1,0,.619,3.02Z" transform="translate(-1072.169 -820.923)" fill="#f6f6f6" fill-rule="evenodd"/>
  </g>
  <g id="Group_1933" data-name="Group 1933" transform="translate(0.035 0)">
    <path id="Path_1115" data-name="Path 1115" d="M1055.826,712.876a31.2,31.2,0,0,1-.854,4.731c-1.824,7.8-5.634,15.107-8.438,22.583-6.42,17.119-5.605,36.491-7.743,54.4-1.144,9.563-2.541,19.367-7.719,27.729a1.537,1.537,0,0,0,.507,2.121,1.556,1.556,0,0,0,2.134-.505c5.415-8.746,6.963-18.979,8.158-28.981,2.109-17.669,1.234-36.793,7.569-53.683,2.85-7.6,6.7-15.032,8.554-22.965a33.7,33.7,0,0,0,.936-5.354,7.728,7.728,0,0,0-.65-4.056,1.817,1.817,0,0,0-.916-.827,1.86,1.86,0,0,0-1.6.1,4.42,4.42,0,0,0-1.266,1.139,19.19,19.19,0,0,0-1.478,2.248c-2.09,3.774-3.958,7.664-6.212,11.347-6.125,10.008-13.817,20.066-16.248,31.743a1.55,1.55,0,0,0,3.037.624c2.357-11.334,9.913-21.051,15.861-30.765,2.278-3.72,4.165-7.651,6.279-11.461.012-.024.044-.082.092-.165Z" transform="translate(-1030.524 -707.931)" fill="#f6f6f6" fill-rule="evenodd"/>
  </g>
  <g id="Group_1934" data-name="Group 1934" transform="translate(0.996 81.037)">
    <path id="Path_1116" data-name="Path 1116" d="M1032.132,848.924c1.412-3.695,1.589-8.4,1.876-12.279.8-10.778-.571-21.788,1.863-32.392,2.115-9.218,7.789-16.431,12.559-24.4,3.872-6.472,6.589-13.312,9.918-20.033a.514.514,0,0,0-.236-.688.52.52,0,0,0-.692.234c-3.314,6.7-6.019,13.51-9.878,19.961-4.824,8.063-10.538,15.371-12.678,24.7-2.446,10.655-1.084,21.717-1.887,32.546-.281,3.782-.434,8.384-1.811,11.99a.511.511,0,0,0,.3.662.517.517,0,0,0,.667-.3Z" transform="translate(-1031.132 -759.079)" fill="#f6f6f6" fill-rule="evenodd"/>
  </g>
  <g id="Group_1935" data-name="Group 1935" transform="translate(2.538 82.104)">
    <path id="Path_1117" data-name="Path 1117" d="M1033.127,845.744c2-9.913,2-20.394,2.922-30.45.5-5.468,1.008-11.225,2.94-16.416,1.613-4.332,4.254-8.194,6.661-12.111,2.85-4.637,5.59-9.346,8.022-14.215,1.887-3.78,4.094-7.95,4.267-12.266a.516.516,0,0,0-1.031-.041c-.168,4.175-2.339,8.2-4.162,11.851-2.418,4.842-5.141,9.524-7.975,14.134-2.443,3.975-5.114,7.9-6.749,12.293-1.965,5.274-2.491,11.119-3,16.678-.919,10.018-.919,20.46-2.906,30.342a.516.516,0,0,0,1.012.2Z" transform="translate(-1032.104 -759.753)" fill="#f6f6f6" fill-rule="evenodd"/>
  </g>
  <g id="Group_1936" data-name="Group 1936" transform="translate(1.674 99.324)">
    <path id="Path_1118" data-name="Path 1118" d="M1032.646,806.259a26.971,26.971,0,0,1,.608-7.11,58.272,58.272,0,0,1,6.279-16.8c2-3.7,4.389-7.209,6.25-10.984a.516.516,0,0,0-.927-.453c-1.858,3.763-4.243,7.256-6.235,10.953a59.259,59.259,0,0,0-6.385,17.1,27.935,27.935,0,0,0-.621,7.38.517.517,0,0,0,1.03-.084Z" transform="translate(-1031.559 -770.621)" fill="#f6f6f6" fill-rule="evenodd"/>
  </g>
  <g id="Group_1937" data-name="Group 1937" transform="translate(0.628 102.603)">
    <path id="Path_1119" data-name="Path 1119" d="M1031.907,848.892a6.21,6.21,0,0,1,1.144-1.873c.534-.656,1.109-1.288,1.534-1.917a55.958,55.958,0,0,0,5.1-8.9c3.5-8.049,4.268-17.254,8.646-24.9,2.5-4.363,6.131-8.026,9.558-11.672,6.864-7.3,14.579-12.938,22.827-18.554,3.6-2.451,7.112-5.227,10.874-7.426a.512.512,0,0,0,.182-.7.517.517,0,0,0-.707-.182c-3.78,2.212-7.315,5-10.932,7.462-8.31,5.661-16.084,11.346-23,18.7-3.482,3.7-7.164,7.432-9.7,11.865-4.4,7.681-5.184,16.922-8.7,25a54.81,54.81,0,0,1-5.015,8.735c-.857,1.271-2.32,2.568-2.8,4.043a.513.513,0,0,0,.33.648.521.521,0,0,0,.653-.328Z" transform="translate(-1030.899 -772.691)" fill="#f6f6f6" fill-rule="evenodd"/>
  </g>
  <g id="Group_1938" data-name="Group 1938" transform="translate(1.097 102.699)">
    <path id="Path_1120" data-name="Path 1120" d="M1032.182,852.442c1.388-3.055,3.934-5.765,5.937-8.418a41.984,41.984,0,0,0,5.173-8.969c2.191-5.179,2.624-10.672,4.3-15.983a42.1,42.1,0,0,1,6.547-12.225c6.475-8.754,15.682-15.11,24.3-21.6,4.916-3.7,9.257-8.045,14.3-11.563a.513.513,0,0,0,.128-.716.521.521,0,0,0-.721-.124c-5.049,3.522-9.4,7.876-14.326,11.582-8.695,6.55-17.973,12.976-24.5,21.81a43.106,43.106,0,0,0-6.7,12.526c-1.67,5.281-2.091,10.743-4.268,15.894a41.163,41.163,0,0,1-5.048,8.75c-2.049,2.711-4.636,5.49-6.052,8.611a.51.51,0,0,0,.257.678.518.518,0,0,0,.685-.255Z" transform="translate(-1031.195 -772.752)" fill="#f6f6f6" fill-rule="evenodd"/>
  </g>
  <g id="Group_1939" data-name="Group 1939" transform="translate(0.877 104.756)">
    <path id="Path_1121" data-name="Path 1121" d="M1031.972,857.685a105.418,105.418,0,0,0,8.722-11.23,72.359,72.359,0,0,0,7.207-16.118c2.51-7.662,2.671-16.113,7.459-22.927,3.365-4.794,8.909-7.993,13.515-11.471,8.083-6.1,16.637-12.759,22.588-21.078a.513.513,0,0,0-.122-.716.519.519,0,0,0-.721.122c-5.891,8.232-14.37,14.82-22.368,20.855-4.693,3.539-10.314,6.819-13.741,11.7-4.846,6.9-5.049,15.44-7.594,23.2a71.269,71.269,0,0,1-7.1,15.894,104.684,104.684,0,0,1-8.641,11.117.511.511,0,0,0,.065.723.522.522,0,0,0,.73-.067Z" transform="translate(-1031.056 -774.05)" fill="#f6f6f6" fill-rule="evenodd"/>
  </g>
  <g id="Group_1940" data-name="Group 1940" transform="translate(2.839 114.112)">
    <path id="Path_1122" data-name="Path 1122" d="M1033.232,856.748c2.717-3.755,6.057-7.033,8.836-10.747a64.52,64.52,0,0,0,8.131-14.5c1.773-4.389,2.535-9,3.476-13.551.924-4.466,2.017-8.874,4.465-12.941,3.321-5.507,8.3-9.354,13.139-13.442a124.517,124.517,0,0,0,11.157-10.748.509.509,0,0,0-.033-.724.517.517,0,0,0-.729.03,122.936,122.936,0,0,1-11.065,10.66c-4.926,4.161-9.977,8.091-13.355,13.7-2.51,4.165-3.646,8.682-4.59,13.259-.928,4.492-1.676,9.047-3.425,13.375a63.412,63.412,0,0,1-8,14.275c-2.784,3.717-6.125,7-8.847,10.761a.509.509,0,0,0,.119.716.518.518,0,0,0,.721-.117Z" transform="translate(-1032.294 -779.955)" fill="#f6f6f6" fill-rule="evenodd"/>
  </g>
  <g id="Group_1941" data-name="Group 1941" transform="translate(6.336 118.148)">
    <path id="Path_1123" data-name="Path 1123" d="M1035.137,854.612a5.62,5.62,0,0,0,2.221-1.275c.985-.844,1.9-1.928,2.584-2.621a56.176,56.176,0,0,0,10.035-14.074c3.4-6.678,5.309-14.313,6.965-21.589.992-4.36,1.641-8.97,3.665-13.011,1.442-2.874,3.741-5.136,5.986-7.391,3.717-3.733,7.6-7.253,10.984-11.309a.511.511,0,0,0-.068-.722.518.518,0,0,0-.727.068c-3.364,4.031-7.228,7.529-10.924,11.241-2.321,2.332-4.685,4.682-6.173,7.654-2.064,4.113-2.742,8.806-3.752,13.244-1.635,7.2-3.517,14.747-6.879,21.352a55.207,55.207,0,0,1-9.845,13.816c-.673.675-1.561,1.736-2.524,2.563a4.581,4.581,0,0,1-1.786,1.054.514.514,0,1,0,.238,1Z" transform="translate(-1034.502 -782.503)" fill="#f6f6f6" fill-rule="evenodd"/>
  </g>
  <g id="Group_1942" data-name="Group 1942" transform="translate(0.9 3.859)">
    <path id="Path_1124" data-name="Path 1124" d="M1032.071,819.29c1.393-3.671,1.6-8.019,2.028-11.872,1.475-13.22-.71-26.614.97-39.785,2.585-20.266,12.572-38.33,21.209-56.535a.511.511,0,0,0-.247-.683.517.517,0,0,0-.687.247c-8.684,18.3-18.7,36.465-21.3,56.843-1.681,13.174.5,26.573-.971,39.8-.421,3.771-.605,8.03-1.969,11.621a.517.517,0,0,0,.968.363Z" transform="translate(-1031.071 -710.367)" fill="#f6f6f6" fill-rule="evenodd"/>
  </g>
  <g id="Group_1943" data-name="Group 1943" transform="translate(2.051 7.963)">
    <path id="Path_1125" data-name="Path 1125" d="M1032.784,818.608c1.629-3.547,2.053-8.061,2.757-11.857a162.82,162.82,0,0,0,2.327-26.5c.133-6.981-.3-13.942,1.028-20.845,1.5-7.83,5-15.161,8.205-22.572,3.242-7.505,6.182-15.093,6.529-23.337a.518.518,0,0,0-1.034-.041c-.339,8.117-3.253,15.582-6.445,22.973-3.232,7.48-6.756,14.883-8.272,22.786-1.336,6.96-.913,13.98-1.044,21.018a161.878,161.878,0,0,1-2.31,26.338c-.691,3.717-1.087,8.142-2.682,11.617a.517.517,0,0,0,.941.426Z" transform="translate(-1031.797 -712.957)" fill="#f6f6f6" fill-rule="evenodd"/>
  </g>
  <g id="Group_1944" data-name="Group 1944" transform="translate(22.804 4.953)">
    <path id="Path_1126" data-name="Path 1126" d="M1046.769,715.758a.52.52,0,0,0,.583-.426c.152-.952.293-1.907.379-2.868,0-.038.033-.518.017-.776a.934.934,0,0,0-.052-.288.531.531,0,0,0-.653-.318.655.655,0,0,0-.361.3,3.167,3.167,0,0,0-.206.64c-.165.58-.285,1.169-.4,1.76-.315,1.64-.566,3.289-.813,4.94a19.892,19.892,0,0,0-.366,2.914.516.516,0,0,0,1.033,0,19.1,19.1,0,0,1,.353-2.762c.157-1.041.312-2.077.487-3.113Z" transform="translate(-1044.896 -711.057)" fill="#f6f6f6" fill-rule="evenodd"/>
  </g>
  <g id="Group_1945" data-name="Group 1945" transform="translate(7.719 138.301)">
    <path id="Path_1127" data-name="Path 1127" d="M1036.643,848.708a.535.535,0,0,0-.087.293.522.522,0,0,0,.144.363,1.029,1.029,0,0,0,.642.282,5.274,5.274,0,0,0,1.047-.062,27.214,27.214,0,0,0,3.978-.791c6.021-1.545,10.631-4.862,15.031-9.15a102.309,102.309,0,0,0,9.948-11.4c3.063-4.023,6.043-8.6,10.371-11.414,2.787-1.811,5.956-2.457,9.145-3.212,5.143-1.214,10.089-2.171,14.717-4.845a48.364,48.364,0,0,0,7.689-5.5c-.152.169-.308.339-.461.507-3.926,4.284-8.208,8.057-13.575,10.414-6.215,2.728-13.315,3.38-19.026,7.239-7.641,5.163-12.28,13.394-18.989,19.545a44.447,44.447,0,0,1-7.832,5.933,24.577,24.577,0,0,1-3.311,1.615,7.076,7.076,0,0,0-1.177.461.671.671,0,0,0-.342.578.511.511,0,0,0,.455.505,2.084,2.084,0,0,0,.5-.01c.377-.043.9-.138.941-.147a43.154,43.154,0,0,0,4.853-1.161c6.187-1.882,10.186-6.125,14.1-11.024,3.414-4.265,6.7-9.148,11.342-12.2,4.01-2.635,8.75-3.95,13.119-5.845a50.446,50.446,0,0,0,8.582-5.056.513.513,0,0,0,.128-.716.544.544,0,0,0-.174-.155,45.648,45.648,0,0,0,11.163-9.283,48.229,48.229,0,0,0,3.847-4.726c.361-.512.721-1.03,1.041-1.57.017-.029.163-.328.272-.561.274-.239.545-.479.814-.724.211-.195.425-.39.632-.593a3.381,3.381,0,0,0,.249-.239.535.535,0,0,0,.084-.162.477.477,0,0,0-.192-.58.5.5,0,0,0-.455-.078,2.05,2.05,0,0,0-.732.431c-.261.225-.518.507-.711.654a31.356,31.356,0,0,1-3.039,2.094,37.506,37.506,0,0,1-8.928,3.665c-6.295,1.776-12.95,1.324-19.245,3a29.489,29.489,0,0,0-13.126,7.852c-4.655,4.614-7.434,10.536-11,15.924a54.049,54.049,0,0,1-11.956,13.095,42.771,42.771,0,0,1-7.47,4.495,8.9,8.9,0,0,1-3.747,1.283.512.512,0,0,0-.532.5.518.518,0,0,0,.5.531,4.214,4.214,0,0,0,.767-.052Zm72.38-46.593a39.262,39.262,0,0,1-13.827,6.306c-6.68,1.567-13.412,1.58-19.394,5.406-3.731,2.389-6.531,5.9-9.194,9.364-4.457,5.8-8.432,11.99-13.888,16.949a45.034,45.034,0,0,1-10.029,6.9c-1.008.5-2.039.92-3.078,1.332.841-.152,1.675-.358,2.494-.569,5.842-1.5,10.3-4.731,14.57-8.888a101.13,101.13,0,0,0,9.845-11.287c3.132-4.116,6.2-8.772,10.631-11.653,2.89-1.881,6.165-2.571,9.471-3.351,5.043-1.19,9.9-2.112,14.437-4.734a47.239,47.239,0,0,0,7.963-5.77Zm-12.645,12.691c-.241.112-.483.223-.727.331-6.16,2.7-13.2,3.324-18.863,7.147-7.6,5.136-12.2,13.336-18.868,19.454a45.829,45.829,0,0,1-8.015,6.068c-.322.184-.643.363-.97.532.7-.169,1.386-.356,2.071-.566,5.975-1.819,9.811-5.949,13.6-10.682,3.479-4.349,6.847-9.3,11.58-12.418,4.058-2.668,8.854-4.012,13.275-5.929a43.7,43.7,0,0,0,6.92-3.939Zm12.806-14.069a42.825,42.825,0,0,1-6.448,2.339c-6.3,1.779-12.96,1.329-19.261,3a28.458,28.458,0,0,0-12.662,7.586c-4.6,4.564-7.34,10.43-10.869,15.763a55.142,55.142,0,0,1-12.188,13.343c-.168.13-.339.26-.512.385a44.217,44.217,0,0,0,4.778-3.774c5.409-4.916,9.343-11.067,13.763-16.815,2.736-3.562,5.625-7.15,9.46-9.6,6.082-3.893,12.917-3.95,19.713-5.541a38.807,38.807,0,0,0,14.226-6.686Z" transform="translate(-1035.375 -795.222)" fill="#f6f6f6" fill-rule="evenodd"/>
  </g>
  <g id="Group_1946" data-name="Group 1946" transform="translate(32.176 152.465)">
    <path id="Path_1128" data-name="Path 1128" d="M1125.979,806.877c-.808.827-1.624,1.646-2.437,2.469-3.127,3.156-6.23,6.312-9.555,9.267-3.6,3.192-7.336,6.722-12.092,8.071-4.02,1.139-8.392.7-12.516.8a43.222,43.222,0,0,0-17.3,3.56,95.8,95.8,0,0,0-15.46,9.343q-1.659,1.184-3.352,2.31a6.518,6.518,0,0,0-1.008.71.642.642,0,0,0-.159.683.67.67,0,0,0,.558.391,5.2,5.2,0,0,0,1.245-.159,32.868,32.868,0,0,0,4.134-1.2c6.024-2.052,11.445-5.426,17.369-7.713,6.234-2.4,12.613-2.324,19.118-3.3a40.876,40.876,0,0,0,17.822-6.68l-.067.063a28.26,28.26,0,0,1-6.025,4.732c-4.5,2.385-9.192,2.506-14.074,3.612-6.345,1.442-12.558,3.4-18.767,5.314-2.727.845-5.514,1.437-8.207,2.4a14.424,14.424,0,0,0-2.258.846.812.812,0,0,0-.455.708.8.8,0,0,0,.493.653,7.346,7.346,0,0,0,2.105.317,27.825,27.825,0,0,0,7.263-.407c3.813-.778,7.06-3.139,10.84-4.107,6.553-1.675,13.191-1.931,19.2-5.335a.512.512,0,0,0,.195-.7.519.519,0,0,0-.707-.192c-5.926,3.354-12.483,3.579-18.946,5.233-3.763.963-6.993,3.319-10.79,4.092a26.692,26.692,0,0,1-6.987.39c-.119-.006-.577-.013-1.027-.067.591-.22,1.275-.413,1.421-.464,2.679-.954,5.452-1.543,8.164-2.383,6.185-1.911,12.372-3.856,18.694-5.292,4.97-1.128,9.745-1.279,14.329-3.709a29.233,29.233,0,0,0,6.255-4.9,72.987,72.987,0,0,0,9.9-11.811c1.025-1.512,2.028-3.048,2.939-4.633a8.237,8.237,0,0,0,.756-1.469.781.781,0,0,0-.038-.555q.52-.53,1.036-1.063c.089-.092,1.168-1.405,1.375-1.67a1.058,1.058,0,0,0,.089-.125.465.465,0,0,0,0-.479.487.487,0,0,0-.4-.268,1.672,1.672,0,0,0-.911.239,18.121,18.121,0,0,0-1.523,1.046c-2.294,1.5-4.04,3.674-5.983,5.566a45.589,45.589,0,0,1-18.787,11.287c-7.382,2.185-14.979,2.823-22.526,4.153-6.455,1.138-11.833,4.051-16.932,8.085-2.378,1.884-4.729,3.715-7.231,5.438-1.031.71-2.258,1.855-3.527,2.107a.515.515,0,1,0,.2,1.009c1.4-.281,2.777-1.493,3.912-2.272,2.522-1.735,4.889-3.579,7.286-5.477,4.961-3.926,10.191-6.771,16.469-7.877,7.584-1.336,15.219-1.984,22.639-4.18a46.623,46.623,0,0,0,19.22-11.539,57.458,57.458,0,0,1,5.022-4.875Zm-2.98,4.481c-2.714,2.741-5.434,5.455-8.324,8.022-3.709,3.3-7.589,6.9-12.5,8.291-4.1,1.164-8.562.737-12.773.843a42.2,42.2,0,0,0-16.9,3.465,94.778,94.778,0,0,0-15.292,9.246c-.919.656-1.843,1.3-2.779,1.925,1.1-.268,2.188-.632,3.259-.995,6.011-2.049,11.42-5.418,17.333-7.7,6.306-2.432,12.755-2.375,19.337-3.357a39.548,39.548,0,0,0,17.768-6.784,37.489,37.489,0,0,0,9.5-10.667c.469-.756.913-1.526,1.366-2.291Z" transform="translate(-1050.811 -804.163)" fill="#f6f6f6" fill-rule="evenodd"/>
  </g>
  <g id="Group_1947" data-name="Group 1947" transform="translate(71.875 184.974)">
    <path id="Path_1129" data-name="Path 1129" d="M1145.426,829.347l-.927-.124c-5.651-.754-11.246-1.578-16.948-1.825a186.027,186.027,0,0,0-33.7,1.8c-4.8.669-9.522,1.76-14.31,2.487a.514.514,0,1,0,.155,1.016c4.785-.727,9.5-1.817,14.3-2.487a185.246,185.246,0,0,1,33.509-1.786c5.67.244,11.234,1.066,16.853,1.816,2.14.287,4.294.562,6.448.705.07,0,.81.073,1.347.084a2.605,2.605,0,0,0,.664-.047.531.531,0,0,0,.418-.529.605.605,0,0,0-.384-.542,5.329,5.329,0,0,0-.925-.236c-1.033-.227-2.072-.439-3.107-.659-4.8-1.012-9.565-2.072-14.4-2.9-17.073-2.923-34.26-1.149-50.861,3.28-2.418.643-4.953,1.027-7.334,1.79a.511.511,0,0,0-.333.645.518.518,0,0,0,.651.333c2.364-.757,4.881-1.136,7.281-1.776,16.458-4.389,33.495-6.155,50.421-3.257,3.752.642,7.464,1.426,11.179,2.218Z" transform="translate(-1075.868 -824.681)" fill="#f6f6f6" fill-rule="evenodd"/>
  </g>
</svg>
