<svg xmlns="http://www.w3.org/2000/svg" width="14.584" height="14.584" viewBox="0 0 14.584 14.584">
  <g id="Group_1920" data-name="Group 1920" transform="translate(-571 -3248)">
    <path id="Path_54" data-name="Path 54" d="M7.292,0a7.292,7.292,0,1,0,7.292,7.292A7.3,7.3,0,0,0,7.292,0Zm0,0" transform="translate(571 3248)" fill="#b8b8b8"/>
    <path id="Path_1107" data-name="Path 1107" d="M215.328,2.41l-2.3,2.3-2.3-2.3a.7.7,0,1,0-.992.992l2.3,2.3L209.74,8a.7.7,0,0,0,.993.992l2.3-2.3,2.3,2.3A.7.7,0,1,0,216.32,8l-2.3-2.3,2.3-2.3a.7.7,0,1,0-.992-.992Z" transform="translate(365.466 3249.796)" fill="#fff" fill-rule="evenodd"/>
  </g>
</svg>
