<svg xmlns="http://www.w3.org/2000/svg" width="16.857" height="19.979" viewBox="0 0 16.857 19.979">
  <g id="Group_2371" data-name="Group 2371" transform="translate(-490.403 -933.173)">
    <path id="Path_1383" data-name="Path 1383" d="M56.376,3.235,48.728.06a.78.78,0,0,0-.6,0L40.481,3.235A.78.78,0,0,0,40,3.956v3.86a13.07,13.07,0,0,0,8.134,12.105.781.781,0,0,0,.59,0A13.07,13.07,0,0,0,56.857,7.816V3.956A.78.78,0,0,0,56.376,3.235Z" transform="translate(450.403 933.173)" fill="#006b4f"/>
    <path id="Path_1382" data-name="Path 1382" d="M61.25,30.644l4.162-4.162a.968.968,0,1,1,1.369,1.369L61.935,32.7a.968.968,0,0,1-1.369,0l-2.706-2.706a.968.968,0,1,1,1.369-1.369Z" transform="translate(436.511 913.572)" fill="#fff"/>
  </g>
</svg>
